# xmcd
#
# Track frame offsets:
#	150
#	15458
#	35323
#	51242
#	66503
#	81023
#	95578
#	112426
#	127624
#	146151
#
# Disc length: 2204 seconds
#
# Revision: 1
# Processed by: cddbd v1.5.2PL0 Copyright (c) Steve Scherf et al.
# Submitted via: audiograbber 1.83.01
#
DISCID=89089a0a
DTITLE=Ronnie Dunn - Tattooed Heart
DYEAR=2016
DGENRE=Country
TTITLE0=Ain't No Trucks in Texas
TTITLE1=Damn Drunk
TTITLE2=I Worship the Woman You Walked On
TTITLE3=I Put That There
TTITLE4=Young Buck
TTITLE5=I Wanna Love Like That Again
TTITLE6=Still Feels Like Mexico
TTITLE7=Tattooed Heart
TTITLE8=This Old Heart
TTITLE9=Only Broken Heart in San Antone
EXTD=
EXTT0=
EXTT1=
EXTT2=
EXTT3=
EXTT4=
EXTT5=
EXTT6=
EXTT7=
EXTT8=
EXTT9=
PLAYORDER=
